<?xml version="1.0" standalone="no"?><!DOCTYPE svg PUBLIC "-//W3C//DTD SVG 1.1//EN" "http://www.w3.org/Graphics/SVG/1.1/DTD/svg11.dtd"><svg t="1766024567924" class="icon" viewBox="0 0 1025 1024" version="1.1" xmlns="http://www.w3.org/2000/svg" p-id="4662" xmlns:xlink="http://www.w3.org/1999/xlink" width="200.1953125" height="200"><path d="M512.118374 131.072L603.766374 317.44c20.48 41.472 59.392 70.144 104.96 76.8l205.824 30.208-148.992 145.92c-32.768 32.256-47.616 78.336-39.936 123.392l35.328 205.824-183.296-96.768c-19.968-10.752-42.496-16.384-65.024-16.384-22.528 0-45.056 5.632-65.024 16.384l-183.296 96.768 35.328-205.824c7.68-45.056-7.168-91.136-39.936-123.392L109.686374 424.448 314.998374 394.24c45.568-6.656 84.992-35.328 104.96-76.8l92.16-186.368m0-112.64c-20.48 0-41.472 10.752-51.712 32.256L346.742374 281.6c-8.192 16.896-24.576 29.184-43.52 31.744L49.270374 350.208C2.166374 357.376-16.777626 415.232 17.526374 449.024l183.808 180.224c13.312 13.312 19.968 32.256 16.384 51.2l-43.52 253.952c-6.144 37.376 23.552 67.584 56.832 67.584 8.704 0 17.92-2.048 27.136-6.656L484.982374 875.52c8.192-4.608 17.92-6.656 27.136-6.656 9.216 0 18.432 2.048 27.136 6.656l226.816 119.808c8.704 4.608 17.92 6.656 27.136 6.656 33.792 0 63.488-30.208 56.832-67.584l-43.52-253.952c-3.072-18.944 3.072-37.888 16.384-51.2l183.808-180.224c34.304-33.28 15.36-91.648-32.256-98.304l-253.952-36.864c-18.944-2.56-35.328-14.848-43.52-31.744L563.830374 50.688c-10.752-21.504-31.232-32.256-51.712-32.256z" p-id="4663"></path></svg>